<svg id="Layer_1" data-name="Layer 1" xmlns="http://www.w3.org/2000/svg" viewBox="0 0 465.75 531.18"><defs><style>.cls-1{font-size:63.56px;font-family:KumbhSans-Regular, Kumbh Sans;}.cls-1,.cls-4{fill:#fff;}.cls-2{letter-spacing:-0.03em;}.cls-3{letter-spacing:0em;}</style></defs><text class="cls-1" transform="translate(127.02 450.1)">6x<tspan class="cls-2" x="73.77" y="0">7</tspan><tspan class="cls-3" x="108.19" y="0">5 cl</tspan></text><path class="cls-4" d="M545,356.78a85.25,85.25,0,0,1-6-31.43v-33.5a5.76,5.76,0,0,0-5.75-5.75H519.7a5.77,5.77,0,0,0-5.76,5.75v33.5a81.13,81.13,0,0,1-.47,8.84,82.25,82.25,0,0,0,3,15.06,90.68,90.68,0,0,0,3.18-23.9V291.86h13.56v33.5a91.09,91.09,0,0,0,6.37,33.54l4.66,11.81a101.64,101.64,0,0,1,7.12,37.46V470a1.49,1.49,0,0,1-1.49,1.49H528.36a7.39,7.39,0,0,0,.16-1.49V408.16A107.22,107.22,0,0,0,521,368.59l-4.65-11.81c-.41-1-.79-2-1.15-3.09a85.11,85.11,0,0,1-4.83-28.34v-33.5a5.77,5.77,0,0,0-5.76-5.75H491.05a5.77,5.77,0,0,0-5.76,5.75v33.5a85.44,85.44,0,0,1-6,31.43l-4.66,11.81a107.26,107.26,0,0,0-7.53,39.57V470a7.26,7.26,0,0,0,7.25,7.25h75.54a7.26,7.26,0,0,0,7.25-7.25V408.16a107.62,107.62,0,0,0-7.52-39.57ZM522.76,470a1.49,1.49,0,0,1-1.49,1.49H474.38A1.49,1.49,0,0,1,472.9,470V408.16A101.43,101.43,0,0,1,480,370.7l4.66-11.81a91.09,91.09,0,0,0,6.37-33.54V291.86H504.6v33.5a91.07,91.07,0,0,0,4.51,28.34c.57,1.75,1.19,3.49,1.87,5.2l1.17,3,3.49,8.84a101.64,101.64,0,0,1,7.12,37.46Z" transform="translate(-279.28 -230.36)"/><path class="cls-4" d="M582.25,590c-.84-2.47-1.59-4.67-2.24-6.62s-1.33-4-2-6c-.68,2.07-1.36,4.08-2,6s-1.42,4.15-2.26,6.62Z" transform="translate(-279.28 -230.36)"/><path class="cls-4" d="M610.44,533.32a10,10,0,0,0-10.15,0,9.64,9.64,0,0,0-3.51,3.81,12.46,12.46,0,0,0,0,11,9.78,9.78,0,0,0,3.51,3.81,9.9,9.9,0,0,0,10.15,0,9.93,9.93,0,0,0,3.51-3.81,12.46,12.46,0,0,0,0-11A9.79,9.79,0,0,0,610.44,533.32Z" transform="translate(-279.28 -230.36)"/><path class="cls-4" d="M411.27,533.4a8.35,8.35,0,0,0-4.81-1.15h-3.53V541h3.53a8.19,8.19,0,0,0,4.81-1.18,3.93,3.93,0,0,0,0-6.4Z" transform="translate(-279.28 -230.36)"/><path class="cls-4" d="M736.64,340.22,520.12,232.41l-.72-.37A16.35,16.35,0,0,0,505,232L287.66,340.22a14.81,14.81,0,0,0-8.38,13.2V620a14.79,14.79,0,0,0,7.47,12.7L504,759.34l.92.53H505a16.31,16.31,0,0,0,7.17,1.67,16.05,16.05,0,0,0,8.16-2.2L737.57,632.7A14.88,14.88,0,0,0,745,620V353.42A14.79,14.79,0,0,0,736.64,340.22ZM737.53,620a7.68,7.68,0,0,1-3.87,6.59L516.39,753.24a8.42,8.42,0,0,1-8.46,0l-.91-.52L290.67,626.59a7.66,7.66,0,0,1-3.89-6.59v-1.14H737.53ZM367.69,558.37V526.9h10.87q5.85,0,9.15,2.78a9.34,9.34,0,0,1,3.3,7.54,9.94,9.94,0,0,1-1.5,5.5,9.7,9.7,0,0,1-4.27,3.61,15.92,15.92,0,0,1-6.68,1.28h-4.47v10.76Zm52.74,0h-7.2l-7-12.06h-3.34v12.06h-6.42V526.9h10.7c3.83,0,6.83.87,9,2.61a8.59,8.59,0,0,1,3.23,7.06,9,9,0,0,1-1.69,5.47,9.75,9.75,0,0,1-4.77,3.39Zm87.61-19V545H495.91v7.68H509.5v5.66H490.12V526.9h18.76v5.66h-13v6.8Zm73.54,31.83,12.27,31.47H587l-2.64-7H571.61l-2.64,7h-6.86l12.27-31.47Zm-4.93-12.82V526.9h6.42v31.47ZM618.54,597v5.66H598.73V571.19h6.42V597Zm-1.45-42.63a15.74,15.74,0,0,1-5.19,3.42,18.25,18.25,0,0,1-13.07,0,15.89,15.89,0,0,1-5.2-3.42,15.61,15.61,0,0,1-3.41-5.2,18.11,18.11,0,0,1,0-13.07,15.35,15.35,0,0,1,8.61-8.61,18.11,18.11,0,0,1,13.07,0,15.43,15.43,0,0,1,8.61,8.61,18.11,18.11,0,0,1,0,13.07A15.48,15.48,0,0,1,617.09,554.37Zm-45.52-21.81h-9v25.81h-6.42V532.56h-9V526.9h24.43Zm-22.52,38.63h8.18v31.47h-6.42q0-5.74.1-11.22c.08-3.66.22-7.31.45-11-.37,1-.75,1.93-1.15,2.87s-.81,1.9-1.25,2.82l-5.3,11.37H536.6l-5.28-11.33c-.44-1.06-.86-2.11-1.26-3.14s-.81-2.06-1.2-3.09c.16,2.43.28,4.79.37,7.06s.15,4.66.19,7.16.05,5.33.05,8.48h-6.42V571.19h8.35L538.33,586c.32.81.64,1.63.95,2.45s.62,1.64.91,2.46c.3-.85.61-1.7.94-2.54s.67-1.63,1-2.37Zm-26-23.06a9.85,9.85,0,0,0,3.51,3.81,9.34,9.34,0,0,0,5.08,1.4,9.49,9.49,0,0,0,4.13-.9,9.26,9.26,0,0,0,3.21-2.46l4.38,4.39a15.73,15.73,0,0,1-5.18,3.39,16.89,16.89,0,0,1-6.54,1.24,17.19,17.19,0,0,1-6.54-1.21,15.85,15.85,0,0,1-5.19-3.42,15.48,15.48,0,0,1-3.42-5.2,18.11,18.11,0,0,1,0-13.07,15.43,15.43,0,0,1,8.61-8.61,18.07,18.07,0,0,1,13.08,0,15.32,15.32,0,0,1,5.18,3.41l-4.38,4.38a9.26,9.26,0,0,0-3.21-2.46,10,10,0,0,0-9.21.49,9.71,9.71,0,0,0-3.51,3.81,12.54,12.54,0,0,0,0,11Zm-7.55,23.06v31.47H509V571.19Zm-20.11,0h7.76l-11.35,15,12.4,16.45h-7.76l-9.07-12-8.39,12h-7.76l12.4-16.45-11.35-15H480l7.68,10.63ZM485,532.56h-9v25.81h-6.42V532.56h-9V526.9H485Zm-16,70.1h-6.86l-2.65-7H446.78l-2.65,7h-6.86l12.28-31.47h7.19Zm-13-53.49a15.48,15.48,0,0,1-3.42,5.2,15.85,15.85,0,0,1-5.19,3.42,18.25,18.25,0,0,1-13.07,0,15.39,15.39,0,0,1-8.62-8.62,18.25,18.25,0,0,1,0-13.07,15.69,15.69,0,0,1,3.42-5.19,15.48,15.48,0,0,1,5.2-3.42,18.11,18.11,0,0,1,13.07,0A15.43,15.43,0,0,1,456,536.1a18.11,18.11,0,0,1,0,13.07Zm-23.58,22v31.47H426q0-5.74.11-11.22c.07-3.66.22-7.31.44-11-.36,1-.75,1.93-1.14,2.87s-.82,1.9-1.25,2.82l-5.31,11.37h-7.05l-5.29-11.33c-.43-1.06-.85-2.11-1.26-3.14S404.42,581,404,580c.15,2.43.27,4.79.36,7.06s.16,4.66.19,7.16.05,5.33.05,8.48h-6.42V571.19h8.36L413.49,586c.32.81.64,1.63.95,2.45s.62,1.64.92,2.46c.29-.85.6-1.7.93-2.54s.67-1.63,1-2.37l6.9-14.83Zm195.26-12.82V526.9H634l16.16,21.15V526.9h6.42v31.47h-6.48L634,537.18v21.19Zm109.87-47.6H286.78V353.42a7.65,7.65,0,0,1,4.36-6.85L507.66,238.76l.76-.37a8.37,8.37,0,0,1,7.46,0l217.28,108.2a7.66,7.66,0,0,1,4.37,6.85Z" transform="translate(-279.28 -230.36)"/><path class="cls-4" d="M382.82,540.85a4.53,4.53,0,0,0,1.68-3.61,4.45,4.45,0,0,0-1.68-3.58,7.45,7.45,0,0,0-4.91-1.41h-3.82v10h3.82A7.39,7.39,0,0,0,382.82,540.85Z" transform="translate(-279.28 -230.36)"/><path class="cls-4" d="M445.91,533.32a10,10,0,0,0-10.16,0,9.69,9.69,0,0,0-3.5,3.81,12.46,12.46,0,0,0,0,11,9.83,9.83,0,0,0,3.5,3.81,9.92,9.92,0,0,0,10.16,0,9.93,9.93,0,0,0,3.51-3.81,12.54,12.54,0,0,0,0-11A9.79,9.79,0,0,0,445.91,533.32Z" transform="translate(-279.28 -230.36)"/><path class="cls-4" d="M453.15,577.31c-.68,2.07-1.36,4.08-2,6s-1.42,4.15-2.26,6.62h8.55l-2.25-6.62Q454.18,580.42,453.15,577.31Z" transform="translate(-279.28 -230.36)"/></svg>