<svg id="Layer_1" data-name="Layer 1" xmlns="http://www.w3.org/2000/svg" viewBox="0 0 435.11 496.23"><defs><style>.cls-1,.cls-2,.cls-9{fill:#fff;}.cls-2{font-size:38.68px;font-family:KumbhSans-Bold, Kumbh Sans;font-weight:700;}.cls-3{letter-spacing:-0.01em;}.cls-4{letter-spacing:0em;}.cls-5{letter-spacing:0em;}.cls-6{letter-spacing:-0.01em;}.cls-7{letter-spacing:-0.03em;}.cls-8{letter-spacing:-0.02em;}.cls-9{font-size:59.65px;font-family:KumbhSans-Regular, Kumbh Sans;}.cls-10{letter-spacing:-0.03em;}</style></defs><path class="cls-1" d="M728.94,633.78h-433V531.46h433ZM301.71,628H723.17V537.23H301.71Z" transform="translate(-294.89 -264.24)"/><path class="cls-1" d="M527.58,489.52a6.21,6.21,0,0,0,.14-1.38V430.33a100,100,0,0,0-7-37l-4.35-11c-.36-1-.73-1.92-1.05-2.88a76,76,0,0,1-2.85-10.18,79.46,79.46,0,0,1-1.68-16.3V321.69a5.4,5.4,0,0,0-5.38-5.39H492.72a5.39,5.39,0,0,0-5.37,5.39V353a79.6,79.6,0,0,1-5.58,29.36l-4.35,11a100,100,0,0,0-7,37v57.81a6.78,6.78,0,0,0,6.77,6.77h50.09a9.06,9.06,0,0,0,2.84-5.39Zm-30.29,0H477.15a1.38,1.38,0,0,1-1.39-1.38V430.33a94.86,94.86,0,0,1,6.66-35l4.35-11a85.53,85.53,0,0,0,6-31.35V321.69h12.66V353a85.19,85.19,0,0,0,4.21,26.48q.81,2.44,1.75,4.87l1.1,2.77,3.25,8.25a94.66,94.66,0,0,1,6.66,35v57.81a1.38,1.38,0,0,1-1.39,1.38Z" transform="translate(-294.89 -264.24)"/><path class="cls-1" d="M520.69,393.37l-4.35-11c-.36-1-.73-1.92-1.05-2.88a76,76,0,0,1-2.85-10.18,79.46,79.46,0,0,1-1.68-16.3V321.69a5.4,5.4,0,0,0-5.38-5.39H492.72a5.39,5.39,0,0,0-5.37,5.39V353a79.6,79.6,0,0,1-5.58,29.36l-4.35,11a100,100,0,0,0-7,37v57.81a6.78,6.78,0,0,0,6.77,6.77H521a6.77,6.77,0,0,0,6.62-5.39,6.21,6.21,0,0,0,.14-1.38V430.33A100,100,0,0,0,520.69,393.37Zm-23.4,96.15H477.15a1.38,1.38,0,0,1-1.39-1.38V430.33a94.86,94.86,0,0,1,6.66-35l4.35-11a85.53,85.53,0,0,0,6-31.35V321.69h12.66V353a85.19,85.19,0,0,0,4.21,26.48q.81,2.44,1.75,4.87l1.1,2.77,3.25,8.25a94.66,94.66,0,0,1,6.66,35v57.81a1.38,1.38,0,0,1-1.39,1.38Z" transform="translate(-294.89 -264.24)"/><path class="cls-1" d="M547.46,393.37l-4.35-11A80,80,0,0,1,537.53,353V321.69a5.39,5.39,0,0,0-5.37-5.39H519.5a5.41,5.41,0,0,0-5.39,5.39V353a73.36,73.36,0,0,1-.44,8.26,77.56,77.56,0,0,0,2.85,14.06,84.62,84.62,0,0,0,3-22.32V321.69h12.66V353a85.33,85.33,0,0,0,6,31.35l4.35,11a94.85,94.85,0,0,1,6.65,35v57.81a1.38,1.38,0,0,1-1.38,1.38H497.29a6.77,6.77,0,0,0,6.62,5.39h43.82a6.78,6.78,0,0,0,6.77-6.77V430.33A100,100,0,0,0,547.46,393.37Zm-35-24.09a77.52,77.52,0,0,1-2.85,10.18q.81,2.44,1.75,4.87l1.1,2.77,1.1-2.77q.94-2.43,1.75-4.87A76,76,0,0,1,512.44,369.28Z" transform="translate(-294.89 -264.24)"/><path class="cls-1" d="M722.16,366.87,519.89,266.16l-.68-.35a15.3,15.3,0,0,0-13.49,0l-203,101.06a13.84,13.84,0,0,0-7.83,12.34v249a13.83,13.83,0,0,0,7,11.87l203,118.3.86.51h.06a15.33,15.33,0,0,0,6.7,1.55,14.94,14.94,0,0,0,7.62-2.06l203-118.3a13.9,13.9,0,0,0,7-11.87v-249A13.82,13.82,0,0,0,722.16,366.87ZM723,628.24a7.19,7.19,0,0,1-3.62,6.16l-203,118.32a7.88,7.88,0,0,1-7.91,0l-.84-.48L305.53,634.4a7.16,7.16,0,0,1-3.64-6.16v-249A7.17,7.17,0,0,1,306,372.8L508.24,272.09l.72-.35a7.82,7.82,0,0,1,7,0l203,101.08a7.17,7.17,0,0,1,4.08,6.41Z" transform="translate(-294.89 -264.24)"/><text class="cls-2" transform="translate(92.49 309.53)"><tspan class="cls-3">P</tspan><tspan class="cls-4" x="23.65" y="0">R</tspan><tspan class="cls-3" x="48.39" y="0">O</tspan><tspan x="79.39" y="0">T</tspan><tspan class="cls-5" x="101.75" y="0">E</tspan><tspan class="cls-6" x="123.81" y="0">C</tspan><tspan x="151.09" y="0">TION</tspan></text><text class="cls-2" transform="translate(119.96 349.39)">M<tspan class="cls-7" x="35.67" y="0">A</tspan><tspan class="cls-8" x="62.89" y="0">X</tspan><tspan x="91.73" y="0">IMAL</tspan></text><text class="cls-9" transform="translate(119.84 423.03)">2x<tspan class="cls-10" x="69.23" y="0">7</tspan><tspan x="101.53" y="0">5 cl</tspan></text></svg>