<?xml version="1.0" standalone="no"?>
<!DOCTYPE svg PUBLIC "-//W3C//DTD SVG 1.1//EN" "http://www.w3.org/Graphics/SVG/1.1/DTD/svg11.dtd">
<svg xmlns="http://www.w3.org/2000/svg">
<defs >
<font id="Italiana" horiz-adv-x="435" ><font-face
    font-family="Italiana"
    units-per-em="1000"
    panose-1="0 0 0 0 0 0 0 0 0 0"
    ascent="928"
    descent="-250"
    alphabetic="0" />
<glyph unicode=" " glyph-name="space" horiz-adv-x="299" />
<glyph unicode="!" glyph-name="exclam" horiz-adv-x="282" d="M107 750H177L157 225H127L107 750ZM101 65T101 83T113 113T143 125T173 113T186 83T174 53T143 40T113 52Z" />
<glyph unicode="&quot;" glyph-name="quotedbl" horiz-adv-x="324" d="M88 748L120 750L105 567H92L88 748ZM208 748L240 750L225 567H212L208 748Z" />
<glyph unicode="#" glyph-name="numbersign" horiz-adv-x="600" d="M68 483L69 491H162L199 700H279L242 491H364L401 700H481L444 491H560L559 483H443L404 262H520L519 254H402L360 11H280L322 254H200L158 11H78L120 254H28L29 262H122L161 483H68ZM241 483L202
262H324L363 483H241Z" />
<glyph unicode="$" glyph-name="dollar" horiz-adv-x="583" d="M308 -59H298V-1H285Q162 -1 75 60L80 68Q113 43 165 26T253 9T298 10V261Q264 272 254 276T213 291T171 311T138 334T109 364Q86 405 86 444Q86 510 135 556T281 602H298V699H308V601Q395 597 483
568L479 558Q397 589 308 593V329Q350 315 370 308T425 283T476 248Q520 202 520 136T461 36T308 0V-59ZM187 380Q226 356 298 332V593Q226 591 182 558T137 468T187 380ZM379 15T424 39T469 115T428 198T308 257V10Q379 15 424 39Z" />
<glyph unicode="%" glyph-name="percent" horiz-adv-x="653" d="M490 500H500L150 0H140L490 500ZM70 400Q70 441 108 470T200 500Q330 500 330 400Q330 359 292 330T200 300Q70 300 70 400ZM171 492T151 465T130 397T149 332T199 308T249 335T270 403T250 468T201
492ZM315 100Q315 141 353 170T445 200Q575 200 575 100Q575 59 537 30T445 0Q315 0 315 100ZM416 192T396 165T375 97T394 32T444 8T494 35T515 103T495 168T446 192Z" />
<glyph unicode="&amp;" glyph-name="ampersand" horiz-adv-x="900" d="M615 392V402H862V392H807Q753 245 628 128Q567 71 485 36T316 0Q233 0 164 32Q124 50 94 78T43 155T23 267Q23 390 98 474T270 559Q444 559 450 404L616 535L623 529L127 139Q152 79 198
45T315 10T456 45T579 138Q684 254 727 392H615ZM370 455T349 502T277 549T192 523T138 453Q103 370 103 272L105 228Q110 183 123 146L371 341Q370 455 349 502Z" />
<glyph unicode="&apos;" glyph-name="quotesingle" horiz-adv-x="100" d="M28 748L60 750L45 567H32L28 748Z" />
<glyph unicode="(" glyph-name="parenleft" horiz-adv-x="300" d="M149 236Q149 -113 249 -193L245 -200Q198 -182 165 -142Q149 -123 128 -84Q69 29 69 240Q69 350 82 433T112 562T146 644T183 699Q221 739 240 746L249 750L255 737Q251 735 245 730T221 695T190
622T164 490Q149 384 149 236Z" />
<glyph unicode=")" glyph-name="parenright" horiz-adv-x="300" d="M132 676T155 631T201 486T224 222Q224 180 218 116T198 3T165 -84T128 -142T90 -177Q69 -192 48 -200L44 -193Q144 -113 144 236Q144 384 131 481T103 622Q73 713 48 730L38 737L44 750Q51 748
62 743T102 707Z" />
<glyph unicode="*" glyph-name="asterisk" horiz-adv-x="556" d="M283 348H275V515L157 397L152 402L270 520H103V528H270L152 646L157 651L275 533V700H283V533L401 651L406 646L288 528H455V520H288L406 402L401 397L283 515V348Z" />
<glyph unicode="+" glyph-name="plus" horiz-adv-x="654" d="M106 265H271V460H351V265H526V257H351V40H271V257H106V265Z" />
<glyph unicode="," glyph-name="comma" horiz-adv-x="92" d="M38 81L70 83L25 -100H12L38 81Z" />
<glyph unicode="-" glyph-name="hyphen" horiz-adv-x="400" d="M46 293H348V285H46V293Z" />
<glyph unicode="." glyph-name="period" horiz-adv-x="110" d="M47 -4T38 5T28 28T37 51T59 60T82 51T92 28T83 6T60 -4Z" />
<glyph unicode="/" glyph-name="slash" horiz-adv-x="491" d="M110 0H100L351 749H361L110 0Z" />
<glyph unicode="0" glyph-name="zero" horiz-adv-x="646" d="M50 250Q50 355 129 429T327 504T519 443T594 250Q594 145 515 71T317 -4T125 57T50 250ZM130 250Q130 124 183 64T319 4T458 76T514 250Q514 376 461 436T325 496T186 424T130 250Z" />
<glyph unicode="1" glyph-name="one" horiz-adv-x="399" d="M287 492H240V8H300V0H100V8H160V492H113V500H287V492Z" />
<glyph unicode="2" glyph-name="two" horiz-adv-x="439" d="M213 492Q137 492 80 435L75 441Q142 500 215 500T327 470T365 380T294 199T136 8H329Q398 8 412 48L418 45Q418 41 411 32T395 16Q371 0 329 0H40Q134 71 209 194T285 382Q285 492 213 492Z" />
<glyph unicode="3" glyph-name="three" horiz-adv-x="375" d="M249 404Q249 492 184 492Q125 492 59 464L55 471Q121 500 187 500Q221 500 257 490Q329 470 329 404Q329 352 287 317T183 261Q240 255 280 226T320 144T293 50T222 -22Q133 -83 40 -100L39 -92Q114
-72 177 -7T240 140Q240 195 217 222T162 254Q144 247 132 246L128 253Q180 269 214 309T249 404Z" />
<glyph unicode="4" glyph-name="four" horiz-adv-x="444" d="M395 8V0H347L335 -100H256L267 0H30L388 500L395 496Q247 290 46 8H268L301 284H381L348 8H395Z" />
<glyph unicode="5" glyph-name="five" horiz-adv-x="348" d="M218 173Q218 322 72 322L90 500H266V422H92L82 330Q298 325 298 177Q298 126 271 80T200 -2Q117 -67 21 -100V-91L32 -85Q127 -33 179 44Q218 103 218 173Z" />
<glyph unicode="6" glyph-name="six" horiz-adv-x="500" d="M145 349T177 370T270 392T390 347T449 213T393 60T232 -4Q40 -4 40 231Q40 341 96 432Q162 537 290 578Q362 600 451 600L450 593Q273 593 192 479Q148 417 133 325Q145 349 177 370ZM128 300Q119 238
119 186Q119 98 152 51T240 4T331 64T369 213T335 343T251 384Q218 384 188 365T143 327T128 300Z" />
<glyph unicode="7" glyph-name="seven" horiz-adv-x="414" d="M50 501H379Q177 25 103 -100L95 -97Q174 39 336 422L50 423V501Z" />
<glyph unicode="8" glyph-name="eight" horiz-adv-x="540" d="M471 481Q471 373 350 309Q416 295 449 266T483 179Q483 147 467 112T428 53T360 13T256 -4T158 11T99 45T71 93T61 135T60 158T60 179Q67 278 216 345Q109 375 109 464Q109 529 164 564T293 600T419
571T471 481ZM224 341Q139 270 139 164Q139 122 149 89T172 40T207 14T235 5T263 4T308 13T348 38T375 72T392 110Q404 157 404 188T395 244T364 285T322 309T270 326T224 341ZM342 312Q392 380 392 483Q392 525 370 558T287 592Q242 592 217 557Q189 517 189 455Q189
385 220 362Q238 348 255 342T299 328T342 312Z" />
<glyph unicode="9" glyph-name="nine" horiz-adv-x="500" d="M346 152T314 131T221 109T101 154T42 288T98 441T259 505Q451 505 451 270Q451 160 394 69Q329 -36 200 -76Q129 -99 40 -99L41 -92Q218 -92 299 22Q343 84 358 176Q346 152 314 131ZM363 201Q372
263 372 315Q372 403 339 450T251 497T160 437T122 288T156 158T240 117Q273 117 303 136T348 174T363 201Z" />
<glyph unicode=":" glyph-name="colon" horiz-adv-x="250" d="M102 -4T93 5T83 28T92 51T115 60T137 51T147 28T138 6T115 -4ZM83 424T83 437T92 459T115 469T137 460T147 437T138 415T115 405T93 414Z" />
<glyph unicode=";" glyph-name="semicolon" horiz-adv-x="250" d="M83 424T83 437T92 459T115 469T137 460T147 437T138 415T115 405T93 414ZM98 81L130 83L85 -100H72L98 81Z" />
<glyph unicode="&lt;" glyph-name="less" horiz-adv-x="569" d="M100 300L452 500L459 493L166 299L459 108L452 100L100 300Z" />
<glyph unicode="=" glyph-name="equal" horiz-adv-x="739" d="M146 358H600V350H146V358ZM146 136H600V128H146V136Z" />
<glyph unicode="&gt;" glyph-name="greater" horiz-adv-x="569" d="M107 500L459 300L107 100L100 108L393 299L100 493L107 500Z" />
<glyph unicode="?" glyph-name="question" horiz-adv-x="431" d="M36 680Q117 705 198 705T332 665T384 543Q384 464 294 380Q256 346 219 310T155 227T128 128H118Q118 224 184 314Q211 351 238 386Q305 471 305 541T272 654T178 697Q132 697 64 680L40 674L36
680ZM93 42T102 51T125 60T147 51T157 28T148 6T125 -4T103 5T93 28Z" />
<glyph unicode="@" glyph-name="at" horiz-adv-x="1070" d="M978 250Q978 186 963 139T925 66T870 25T811 5T752 1T695 7T660 26Q639 46 639 64V85Q621 50 583 23T492 -4Q351 -4 339 110Q338 122 338 134T341 160T362 193Q395 229 531 239Q563 242 590 242T639
240V416Q639 422 634 437T621 465T592 486T545 496Q447 496 370 456L366 463Q379 469 386 472T405 480T432 489T464 496Q500 504 545 504Q709 504 709 406V71Q709 30 730 16Q740 10 747 10H754Q800 10 844 56Q868 81 883 131T898 250Q898 366 870 453T790 591Q688
692 533 692T269 563T160 250Q160 133 188 46T268 -92T385 -167T529 -192T697 -153L703 -159Q677 -174 629 -187T529 -200Q334 -200 212 -100Q149 -49 115 40T80 250Q80 436 211 568T529 700Q723 700 846 596Q909 544 943 456T978 250ZM493 4Q551 4 593 40T639
111V232Q612 234 585 234T530 231Q453 222 431 197T408 131Q408 121 409 110Q421 4 493 4Z" />
<glyph unicode="A" glyph-name="A" horiz-adv-x="622" d="M42 0H30L329 700L340 705L592 0H507L429 220H137L42 0ZM298 592L141 230H426L298 592Z" />
<glyph unicode="B" glyph-name="B" horiz-adv-x="570" d="M70 692Q186 700 275 700Q522 700 522 535Q522 473 486 429T371 368Q447 359 491 322T535 193Q535 0 288 0H70V692ZM153 10H288Q377 10 414 56T452 199T414 327T301 361H153V10ZM275 690Q217 690 153 683V371H301Q442
377 442 533Q442 609 400 649T275 690Z" />
<glyph unicode="C" glyph-name="C" horiz-adv-x="617" d="M399 -4Q212 -4 122 102Q90 140 70 203T50 356T79 517T160 628Q259 701 399 701Q439 701 477 695T534 681L552 674L549 664Q481 691 399 691Q293 691 222 622Q168 571 146 472Q133 416 133 335T156 186T208
84T280 32T347 9T407 6T488 13T556 26L579 33L582 23Q506 -4 399 -4Z" />
<glyph unicode="D" glyph-name="D" horiz-adv-x="622" d="M150 699Q194 701 236 701T326 692T420 659T499 596T552 494T572 341T543 180T462 70Q363 -4 223 -4Q174 -4 120 0H70V699H150ZM153 8Q174 6 206 6T254 7T298 15T350 36T400 74T446 135Q489 217 489 349Q489
443 466 511T414 613T342 665T275 688T217 691T153 688V8Z" />
<glyph unicode="E" glyph-name="E" horiz-adv-x="525" d="M468 700V690H153V390H445V380H153V10H490V0H70V700H468Z" />
<glyph unicode="F" glyph-name="F" horiz-adv-x="503" d="M468 700V690H153V370H445V360H153V0H70V700H468Z" />
<glyph unicode="G" glyph-name="G" horiz-adv-x="649" d="M399 -4Q212 -4 122 102Q90 140 70 203T50 356T79 517T160 628Q259 701 399 701Q444 701 487 695T551 681L572 674L569 664Q491 691 399 691Q293 691 222 622Q168 571 146 472Q133 416 133 335T156 186T208
84T280 32T347 9T406 6T499 14V220H378V230H625V220H582V23Q506 -4 399 -4Z" />
<glyph unicode="H" glyph-name="H" horiz-adv-x="591" d="M133 0H50V700H133V378H458V700H541V0H458V368H133V0Z" />
<glyph unicode="I" glyph-name="I" horiz-adv-x="318" d="M70 690V700H248V690H199V10H248V0H70V10H116V690H70Z" />
<glyph unicode="J" glyph-name="J" horiz-adv-x="293" d="M45 690V700H223V132Q223 53 191 27T95 0T-20 19L-17 27Q31 8 82 8Q116 8 127 37T139 131V690H45Z" />
<glyph unicode="K" glyph-name="K" horiz-adv-x="601" d="M153 700V258L476 700L484 693L305 449L571 0H478L254 379L153 240V0H70V700H153Z" />
<glyph unicode="L" glyph-name="L" horiz-adv-x="480" d="M450 0H70V700H153V10H450V0Z" />
<glyph unicode="M" glyph-name="M" horiz-adv-x="794" d="M78 0H65L152 700H185L395 53L604 700H637L724 0H641L572 560L391 0H328L145 553L78 0Z" />
<glyph unicode="N" glyph-name="N" horiz-adv-x="593" d="M78 0H65V700H99L515 53V700H528V0H455L78 580V0Z" />
<glyph unicode="O" glyph-name="O" horiz-adv-x="720" d="M50 333Q50 515 138 609T366 704T587 622T670 360T582 88T347 -4Q220 -4 139 69Q97 107 74 174T50 333ZM262 694T198 604T133 340T194 86T356 6T522 96T587 359T526 613T363 694Z" />
<glyph unicode="P" glyph-name="P" horiz-adv-x="572" d="M70 692Q186 700 274 700Q522 700 522 525Q522 444 480 383Q458 350 412 331T301 311H153V0H70V692ZM275 690Q217 690 153 683V321H301Q442 327 442 523Q442 603 400 646T275 690Z" />
<glyph unicode="Q" glyph-name="Q" horiz-adv-x="720" d="M50 348Q50 511 138 607T360 704Q498 704 580 632Q670 551 670 348Q670 202 599 110T412 0Q475 -14 564 -84Q598 -111 638 -138Q728 -198 857 -198V-208Q675 -208 574 -168Q489 -133 451 -84Q434 -62 421
-45T393 -16T360 -4Q290 -4 237 12T140 66Q50 145 50 348ZM133 350Q133 6 360 6Q458 6 522 98T587 350Q587 694 360 694Q262 694 198 602T133 350Z" />
<glyph unicode="R" glyph-name="R" horiz-adv-x="601" d="M70 692Q186 700 275 700Q522 700 522 535Q522 465 488 410T371 337L571 0H478L282 331H153V0H70V692ZM275 690Q217 690 153 683V341H301Q442 347 442 533Q442 609 400 649T275 690Z" />
<glyph unicode="S" glyph-name="S" horiz-adv-x="515" d="M439 658Q348 693 268 693T142 659T97 565Q97 492 173 452Q207 435 247 421T329 388T404 347T459 284T480 181T445 74T361 15T245 -1Q122 -1 35 60L40 68Q73 42 125 26T233 9Q314 9 371 46T429 157Q429
237 353 282Q319 302 279 319T197 354T122 396Q46 446 46 538Q46 611 95 656T242 702T443 668L439 658Z" />
<glyph unicode="T" glyph-name="T" horiz-adv-x="490" d="M286 0H203V690H30V700H460V690H286V0Z" />
<glyph unicode="U" glyph-name="U" horiz-adv-x="629" d="M551 700H564V300Q564 143 502 70T340 -4Q277 -4 233 7T150 50Q70 112 70 300V700H153V301Q153 119 208 58Q236 28 266 17T340 6Q436 6 493 76T551 301V700Z" />
<glyph unicode="V" glyph-name="V" horiz-adv-x="590" d="M541 700Q560 681 560 651Q560 626 549 600L293 0L282 -5L30 700H115L324 108L537 600Q548 625 548 652T533 694L541 700Z" />
<glyph unicode="W" glyph-name="W" horiz-adv-x="846" d="M797 700Q816 681 816 651Q816 626 805 600L569 0L558 -5L426 414L263 0L252 -5L30 700H115L294 108L421 430L336 700H421L600 108L793 600Q804 625 804 652T789 694L797 700Z" />
<glyph unicode="X" glyph-name="X" horiz-adv-x="551" d="M60 0H47L228 358L30 700H114L286 404L436 700H448L293 392L521 0H437L235 347L60 0Z" />
<glyph unicode="Y" glyph-name="Y" horiz-adv-x="533" d="M484 700Q503 681 503 651Q503 626 492 600L313 237V0H230V215L30 700H115L306 249L480 600Q491 625 491 652T476 694L484 700Z" />
<glyph unicode="Z" glyph-name="Z" horiz-adv-x="545" d="M61 690V700H469V690L116 10H417Q446 10 470 20T502 49L510 45Q508 40 504 33T476 13T420 0H35V10L386 690H61Z" />
<glyph unicode="[" glyph-name="bracketleft" horiz-adv-x="430" d="M87 -200V750H300V742H167V-192H300V-200H87Z" />
<glyph unicode="\" glyph-name="backslash" horiz-adv-x="600" d="M398 0H388L137 749H147L398 0Z" />
<glyph unicode="]" glyph-name="bracketright" horiz-adv-x="430" d="M137 750H350V-200H137V-192H270V742H137V750Z" />
<glyph unicode="^" glyph-name="asciicircum" horiz-adv-x="560" d="M411 315L390 295L269 425L153 300L146 305L283 450L411 315Z" />
<glyph unicode="_" glyph-name="underscore" horiz-adv-x="437" d="M79 8H349V0H79V8Z" />
<glyph unicode="`" glyph-name="grave" horiz-adv-x="299" d="M102 710L174 708L220 567H207L102 710Z" />
<glyph unicode="a" glyph-name="a" horiz-adv-x="519" d="M453 0Q385 0 360 26Q337 48 337 64V85Q288 -4 180 -4Q54 -4 37 110Q35 122 35 134T39 162T62 195Q100 231 229 239Q261 242 288 242T337 240V406Q335 407 337 415T334 437T319 464T287 486T227 496T141
483T68 456L64 463Q153 504 245 504Q348 504 381 467Q407 438 407 406V71Q407 42 418 27T442 10L453 8H484V0H453ZM196 4Q249 4 291 40T337 111V232Q310 234 283 234T228 231Q152 222 129 197T106 128Q106 120 107 110Q116 4 196 4Z" />
<glyph unicode="b" glyph-name="b" horiz-adv-x="520" d="M40 749H110V376Q127 422 173 463T277 504Q480 504 480 266Q480 -4 218 -4Q141 -4 40 21V749ZM276 496Q214 496 164 443T110 346V27Q171 4 217 4Q410 4 410 267Q410 496 276 496Z" />
<glyph unicode="c" glyph-name="c" horiz-adv-x="481" d="M274 496Q203 496 156 428T108 240T151 62T266 4Q355 4 424 34L427 27Q356 -4 261 -4T103 56T40 241T106 435T274 504Q331 504 379 478T451 399H387Q372 448 342 472T274 496Z" />
<glyph unicode="d" glyph-name="d" horiz-adv-x="598" d="M40 232Q40 362 103 433T292 504Q351 504 411 474V749H481V71Q481 42 492 27T516 10L527 8H558V0H497Q456 0 435 18T412 54L411 71V87Q392 52 348 25T244 -2Q40 3 40 232ZM245 6Q312 6 360 42T411 113V465Q340
496 289 496Q200 496 155 427T110 232Q110 6 245 6Z" />
<glyph unicode="e" glyph-name="e" horiz-adv-x="499" d="M108 244Q108 120 151 62T266 4Q366 4 444 34L447 27Q367 -4 267 -4T103 56T40 241T106 435T274 504Q356 504 412 455T468 310Q468 305 468 300H111Q108 273 108 244ZM399 404T363 450T270 496T169 446T112
308H400Q399 404 363 450Z" />
<glyph unicode="f" glyph-name="f" horiz-adv-x="255" d="M126 547V500H205V492H126V0H56V492H35V500H56V547Q56 656 103 702T255 750V742Q186 741 156 696T126 547Z" />
<glyph unicode="g" glyph-name="g" horiz-adv-x="511" d="M35 232Q35 362 98 433T287 504Q380 504 476 471V-12Q475 -250 268 -250Q154 -250 73 -176L80 -170Q166 -242 268 -242Q406 -242 406 -12V87Q387 52 343 25T239 -2Q35 3 35 232ZM240 6Q307 6 355 42T406
113V466Q334 496 284 496Q195 496 150 427T105 232Q105 6 240 6Z" />
<glyph unicode="h" glyph-name="h" horiz-adv-x="556" d="M460 0Q419 0 398 18T375 54L374 71V385Q374 464 332 486Q312 496 281 496Q219 496 170 446T120 355V0H50V749H120V386Q136 429 181 466T282 504Q379 504 411 471T444 384V71Q444 42 455 27T478 10L490
8H521V0H460Z" />
<glyph unicode="i" glyph-name="i" horiz-adv-x="243" d="M142 0Q101 0 80 18T57 54L56 71V500H126V71Q126 42 137 27T160 10L172 8H203V0H142ZM50 624T50 642T62 672T92 685T122 673T135 642T123 612T92 600T62 612Z" />
<glyph unicode="j" glyph-name="j" horiz-adv-x="231" d="M-60 -231L-57 -223Q-9 -242 37 -242T98 -213T113 -119V500H183V-118Q183 -197 151 -223T55 -250T-60 -231ZM106 624T106 642T118 672T148 685T178 673T191 642T179 612T148 600T118 612Z" />
<glyph unicode="k" glyph-name="k" horiz-adv-x="437" d="M120 750V252L340 500H350L187 316L402 0H332L147 272L120 241V0H50V750H120Z" />
<glyph unicode="l" glyph-name="l" horiz-adv-x="233" d="M167 0Q79 0 56 46Q51 56 51 64V749H121V71Q121 42 132 27T156 10L167 8H198V0H167Z" />
<glyph unicode="m" glyph-name="m" horiz-adv-x="800" d="M643 385Q643 446 627 471T566 496Q506 496 460 446T413 356V0H343V385Q343 446 327 471T259 496T161 448T110 359V0H40V500H110V387Q126 430 169 467T265 504T349 495T394 465T410 430T413 388Q429 431
471 467T561 504T638 496T681 478T703 449T712 418T713 384V71Q713 42 724 27T748 10L759 8H790V0H729Q688 0 667 18T644 54L643 71V385Z" />
<glyph unicode="n" glyph-name="n" horiz-adv-x="526" d="M455 0Q414 0 393 18T370 54L369 71V385Q369 464 328 486Q307 496 276 496Q212 496 161 446T110 355V0H40V500H110V386Q127 429 173 466T274 504T363 494T414 464Q439 433 439 384V71Q439 42 450 27T474
10L485 8H516V0H455Z" />
<glyph unicode="o" glyph-name="o" horiz-adv-x="560" d="M172 -4T106 56T40 241T108 435T282 504T454 444T520 259T452 65T278 -4ZM208 496T158 429T108 241T154 62T276 4T402 71T452 259T406 438T284 496Z" />
<glyph unicode="p" glyph-name="p" horiz-adv-x="530" d="M50 500H120V376Q137 422 183 463T287 504Q490 504 490 266Q490 -4 228 -4Q181 -4 120 18V-250H50V500ZM286 496Q224 496 174 443T120 346V27Q181 4 227 4Q420 4 420 267Q420 496 286 496Z" />
<glyph unicode="q" glyph-name="q" horiz-adv-x="521" d="M40 232Q40 362 103 433T292 504Q351 504 411 474V500H481V-250H411V87Q392 52 348 25T244 -2Q40 3 40 232ZM245 6Q312 6 360 42T411 113V465Q340 496 289 496Q200 496 155 427T110 232Q110 6 245 6Z" />
<glyph unicode="r" glyph-name="r" horiz-adv-x="359" d="M231 457V478Q186 460 149 406T110 303V0H40V500H110V341Q126 399 171 450T273 504H277Q297 504 310 491T324 457T311 424T277 411T244 424T231 457Z" />
<glyph unicode="s" glyph-name="s" horiz-adv-x="422" d="M332 465Q316 478 281 487T227 496T206 496Q152 495 128 469T104 409T125 354T177 319T245 290T313 258T366 210T387 131T354 51T281 7T193 -4Q91 -4 40 41L46 47Q66 28 105 16T182 4Q241 4 279 36T318
117T289 195T219 241T135 274T64 320T35 389T53 452T101 487Q152 504 203 504Q289 504 337 472L332 465Z" />
<glyph unicode="t" glyph-name="t" horiz-adv-x="334" d="M35 492V500H56V600H126V500H279V492H126V128Q126 63 140 34T201 5T296 24L299 16Q249 -3 185 -3T88 23T56 129V492H35Z" />
<glyph unicode="u" glyph-name="u" horiz-adv-x="526" d="M110 115Q110 36 152 14Q172 4 203 4Q266 4 315 52T369 141V500H439V71Q439 42 450 27T474 10L485 8H516V0H455Q414 0 393 18T370 54L369 71V114Q351 71 305 34T205 -4T116 6T66 36Q40 67 40 116V500H110V115Z" />
<glyph unicode="v" glyph-name="v" horiz-adv-x="470" d="M409 494L415 500Q419 498 425 488T433 470T435 455Q435 428 423 400L231 0H221L35 500H105L258 86L413 400Q425 421 425 450T409 494Z" />
<glyph unicode="w" glyph-name="w" horiz-adv-x="790" d="M729 494L735 500Q739 498 745 488T753 470T755 455Q755 428 743 400L561 0H551L407 387L231 0H221L35 500H105L258 86L402 399L365 500H435L588 86L733 400Q745 421 745 450T729 494Z" />
<glyph unicode="x" glyph-name="x" horiz-adv-x="508" d="M35 0V8Q56 8 77 24T110 56L235 240L57 500H130L283 277L431 500H441L287 270L473 0H400L239 234L131 72Q129 69 126 64T113 47T92 26Q62 0 35 0Z" />
<glyph unicode="y" glyph-name="y" horiz-adv-x="486" d="M163 -179Q131 -250 84 -250Q63 -250 35 -243V-235Q58 -241 76 -241Q127 -241 154 -179L238 0H237L51 500H121L276 83L429 400Q441 421 441 450T425 494L431 500Q435 498 441 488T449 470T451 455Q451
428 439 400L247 0L163 -179Z" />
<glyph unicode="z" glyph-name="z" horiz-adv-x="468" d="M60 492V500H407V492L105 8H344Q413 8 427 48L433 45Q433 41 426 32T410 16Q386 0 344 0H35V8L337 492H60Z" />
<glyph unicode="{" glyph-name="braceleft" horiz-adv-x="400" d="M152 384V638Q152 710 216 733Q249 745 300 750V741Q247 726 237 688Q232 669 232 641V387Q232 279 122 258Q232 235 232 129V-125Q232 -182 254 -201Q272 -217 300 -225V-234Q211 -224 182 -198Q152
-170 152 -122V132Q152 239 100 254V262Q152 277 152 384Z" />
<glyph unicode="|" glyph-name="bar" horiz-adv-x="284" d="M87 750H167V-164H87V750Z" />
<glyph unicode="}" glyph-name="braceright" horiz-adv-x="399" d="M248 132V-122Q248 -194 184 -217Q151 -229 100 -234V-225Q153 -210 163 -172Q168 -153 168 -125V129Q168 235 278 258Q168 279 168 387V641Q168 698 146 717Q128 733 100 741V750Q189 740 218
714Q248 686 248 638V384Q248 277 300 262V254Q248 239 248 132Z" />
<glyph unicode="~" glyph-name="asciitilde" horiz-adv-x="588" d="M144 302Q155 349 205 349Q245 349 310 330Q383 314 410 314T449 321T465 353L474 351Q465 308 426 304Q419 303 399 303T331 318Q316 321 280 329Q237 339 210 339T171 331T154 300L144 302Z" />
<glyph unicode="&#xa1;" glyph-name="exclamdown" horiz-adv-x="282" d="M177 -210H107L127 315H157L177 -210ZM101 439T101 457T113 487T143 500T173 488T186 457T174 427T143 415T113 427Z" />
<glyph unicode="&#xa2;" glyph-name="cent" horiz-adv-x="481" d="M270 -82H260V-4Q162 -2 101 58T40 239T101 430T260 504V576H270V504H274Q331 504 379 478T451 399H387Q372 448 342 472T274 496H270V4Q356 4 424 34L427 27Q361 -2 270 -4V-82ZM193 488T151
421T108 239T150 65T260 4V495Q193 488 151 421Z" />
<glyph unicode="&#xa3;" glyph-name="sterling" horiz-adv-x="502" d="M42 292V300H82Q50 359 50 429T97 548T256 597Q293 597 320 587T360 561Q387 529 389 506L390 496L381 493Q381 505 373 524T353 555T316 578T255 589Q130 589 130 419Q130 359 153 300H300V292H156Q165
267 185 227Q226 145 226 104Q226 46 179 8H400V0H66V8H145Q195 50 195 105Q195 131 179 159T133 225T87 292H42Z" />
<glyph unicode="&#xa4;" glyph-name="currency" horiz-adv-x="500" d="M140 341Q101 380 101 446T141 554L97 599L103 605L147 560Q190 600 254 600T360 561L404 605L410 599L366 555Q401 515 401 452T361 346L409 299L403 293L355 340Q312 300 248 300T145 335L104
293L98 299L140 341ZM193 592T152 551T111 447T151 347T250 308T350 349T391 453T351 553T252 592Z" />
<glyph unicode="&#xa5;" glyph-name="yen" horiz-adv-x="680" d="M501 500Q512 525 512 552T497 594L505 600Q528 577 523 536Q521 519 513 500L388 245H567V237H384V93H567V85H384V0H301V85H113V93H301V216L292 237H113V245H289L145 600H230L377 249L501 500Z" />
<glyph unicode="&#xa6;" glyph-name="brokenbar" horiz-adv-x="250" d="M87 200H167V-200H87V200ZM167 400H87V749H167V400Z" />
<glyph unicode="&#xa7;" glyph-name="section" horiz-adv-x="500" d="M407 81L428 54Q480 101 480 188Q480 243 459 283T404 347T329 388T248 420T173 452Q97 492 97 565Q97 625 142 659T267 693T439 658L443 668Q341 702 243 702T95 657T46 538Q46 446 122 396Q156
373 197 355T278 319T353 282T408 231T429 156T407 81ZM130 448Q97 415 97 371T118 298T173 253T247 221T329 188T404 147T459 84T480 -19T445 -126T361 -185T245 -201Q122 -201 35 -140L40 -132Q73 -158 125 -174T233 -191Q314 -191 371 -154T429 -43Q429 37 353
82Q319 102 279 119T197 154T122 196Q46 246 46 335T108 467L130 448Z" />
<glyph unicode="&#xa8;" glyph-name="dieresis" horiz-adv-x="500" d="M111 624T111 642T123 672T153 685T183 673T196 642T184 612T153 600T123 612ZM329 624T329 642T341 672T371 685T401 673T414 642T402 612T371 600T341 612Z" />
<glyph unicode="&#xa9;" glyph-name="copyright" horiz-adv-x="833" d="M243 0T147 77T50 293T148 516T391 600T627 523T718 306T625 84T388 0ZM283 592T207 510T130 297T205 87T393 8T581 90T658 303T583 513T395 592ZM419 100Q220 100 220 299Q220 406 277 453T419
500Q463 500 494 488L505 484L504 479Q465 494 436 494T392 493T353 480T312 450T281 392T267 299T280 208T310 150T351 120Q384 105 413 105Q467 105 508 117L521 121L522 115Q479 100 419 100Z" />
<glyph unicode="&#xaa;" glyph-name="ordfeminine" horiz-adv-x="401" d="M244 502Q217 502 203 511T188 528L187 537V544Q163 500 105 500T39 556Q38 561 38 565Q38 587 56 601Q80 622 164 622Q178 622 187 620V702Q186 702 187 706T185 717T178 730Q168 746
130 746T54 726L52 730Q99 750 141 750Q221 750 221 702V537Q221 523 226 515T244 506H259V502H244ZM74 564Q74 504 117 504Q143 504 164 522T187 557V616Q176 618 162 618Q101 618 84 598Q74 587 74 564Z" />
<glyph unicode="&#xab;" glyph-name="guillemotleft" horiz-adv-x="694" d="M443 70V62L100 259L443 457V449L165 259L443 70ZM602 126V118L358 259L602 400V392L423 259L602 126Z" />
<glyph unicode="&#xac;" glyph-name="logicalnot" horiz-adv-x="600" d="M100 265H520V170H440V257H100V265Z" />
<glyph unicode="&#xae;" glyph-name="registered" horiz-adv-x="599" d="M187 299T119 350T50 495T120 644T298 700T474 648T543 503T473 355T295 299ZM226 692T178 639T130 497T177 357T295 307T415 359T463 501T416 641T298 692ZM253 376H224V619Q269 622 294
622Q382 622 382 564T329 494L400 376H367L298 492H253V376ZM296 618Q269 618 253 616V496H305Q354 498 354 563Q354 618 296 618Z" />
<glyph unicode="&#xaf;" glyph-name="overscore" horiz-adv-x="500" d="M100 608H400V600H100V608Z" />
<glyph unicode="&#xb0;" glyph-name="degree" horiz-adv-x="378" d="M137 523T104 545T70 609T104 675T190 700T274 678T307 614T273 548T188 523ZM164 692T147 669T130 610T146 553T187 531T229 554T247 613T230 670T189 692Z" />
<glyph unicode="&#xb1;" glyph-name="plusminus" horiz-adv-x="676" d="M136 108H556V100H136V108ZM136 425H301V620H381V425H556V417H381V200H301V417H136V425Z" />
<glyph unicode="&#xb2;" glyph-name="twosuperior" horiz-adv-x="332" d="M227 691Q227 746 191 746Q159 746 125 717L122 720Q155 750 191 750Q267 750 267 693Q267 659 232 599T153 504H249Q284 504 291 524L294 522Q289 500 249 500H105Q152 536 189 597T227 691Z" />
<glyph unicode="&#xb3;" glyph-name="threesuperior" horiz-adv-x="300" d="M105 648L93 645L91 648Q113 654 127 671T142 711Q142 748 114 748Q90 748 62 736L60 739Q88 751 116 751Q175 751 175 711T114 651Q172 645 172 600Q172 563 134 536T54 500L53 504Q85
512 111 539T138 595T128 635T105 648Z" />
<glyph unicode="&#xb4;" glyph-name="acute" horiz-adv-x="300" d="M148 708L220 710L115 567H102L148 708Z" />
<glyph unicode="&#xb5;" glyph-name="mu" horiz-adv-x="496" d="M80 -250H10V500H80V115Q80 36 122 14Q142 4 173 4Q236 4 285 52T339 141V500H409V71Q409 42 420 27T444 10L455 8H486V0H425Q384 0 363 18T340 54L339 71V114Q321 71 275 34T171 -4T80 8V-250Z" />
<glyph unicode="&#xb6;" glyph-name="paragraph" horiz-adv-x="573" d="M299 599Q388 599 504 591V-68Q504 -147 472 -173T376 -200T261 -181L264 -173Q312 -192 363 -192Q397 -192 408 -163T420 -69V210H272Q207 210 161 229T92 282Q51 343 51 424Q51 599 299
599ZM298 589Q215 589 173 546T131 422Q131 226 272 220H420V582Q356 589 298 589Z" />
<glyph unicode="&#xb7;" glyph-name="middot" horiz-adv-x="118" d="M47 366T38 375T28 398T37 421T59 430T82 421T92 398T83 376T60 366Z" />
<glyph unicode="&#xb8;" glyph-name="cedilla" horiz-adv-x="260" d="M98 0H168V-126Q168 -131 164 -143T152 -166Q131 -190 82 -190H21V-182Q39 -182 49 -182T68 -179T82 -170Q98 -155 98 -119V0Z" />
<glyph unicode="&#xb9;" glyph-name="onesuperior" horiz-adv-x="241" d="M168 747H144V504H174V500H73V504H104V747H80V751H168V747Z" />
<glyph unicode="&#xba;" glyph-name="ordmasculine" horiz-adv-x="375" d="M126 500T94 529T62 620T95 716T181 750T265 721T298 630T265 534T179 500ZM144 746T120 713T95 621T118 533T178 504T239 537T264 629T242 717T182 746Z" />
<glyph unicode="&#xbb;" glyph-name="guillemotright" horiz-adv-x="694" d="M259 62V70L537 259L259 449V457L602 259L259 62ZM100 118V126L279 259L100 392V400L344 259L100 118Z" />
<glyph unicode="&#xbc;" glyph-name="onequarter" horiz-adv-x="700" d="M210 0H200L451 749H461L210 0ZM181 745H157V406H188V400H84V406H115V745H91V751H181V745ZM570 63V58H541L534 0H488L495 58H357L565 350L570 347Q483 228 366 63H495L515 224H561L542 63H570Z" />
<glyph unicode="&#xbd;" glyph-name="onehalf" horiz-adv-x="751" d="M210 0H200L451 749H461L210 0ZM181 745H157V406H188V400H84V406H115V745H91V751H181V745ZM540 343Q486 343 447 304L443 308Q491 349 542 349T619 328T646 265T597 139T486 6H621Q669 6 679
34L683 31Q682 28 680 23T662 9T621 0H419Q484 50 537 136T590 267Q590 343 540 343Z" />
<glyph unicode="&#xbe;" glyph-name="threequarters" horiz-adv-x="770" d="M210 0H200L451 749H461L210 0ZM570 63V58H541L534 0H488L495 58H357L565 350L570 347Q483 228 366 63H495L515 224H561L542 63H570ZM143 694Q143 745 105 745Q72 745 32 729L30 733Q69
750 107 750Q124 750 146 744Q190 732 190 694Q190 639 105 611Q138 608 161 591T184 540Q184 488 132 450T21 401V405Q64 417 101 455T138 540Q138 600 92 607Q87 604 75 602L73 606Q103 616 123 639T143 694Z" />
<glyph unicode="&#xbf;" glyph-name="questiondown" horiz-adv-x="500" d="M464 -185Q383 -210 302 -210T168 -170T116 -48Q116 31 206 114Q244 149 281 185T345 268T372 367H382Q382 270 316 181Q288 144 261 109Q195 23 195 -47T228 -159T322 -202Q360 -202
436 -184L460 -179L464 -185ZM407 480T407 467T398 445T375 435T353 444T343 467T352 489T375 499T397 490Z" />
<glyph unicode="&#xc0;" glyph-name="Agrave" horiz-adv-x="622" d="M42 0H30L329 700L340 705L592 0H507L429 220H137L42 0ZM298 592L141 230H426L298 592ZM222 894L294 892L340 751H327L222 894Z" />
<glyph unicode="&#xc1;" glyph-name="Aacute" horiz-adv-x="622" d="M42 0H30L329 700L340 705L592 0H507L429 220H137L42 0ZM298 592L141 230H426L298 592ZM384 891L456 893L351 750H338L384 891Z" />
<glyph unicode="&#xc2;" glyph-name="Acircumflex" horiz-adv-x="622" d="M42 0H30L329 700L340 705L592 0H507L429 220H137L42 0ZM298 592L141 230H426L298 592ZM471 771L450 751L329 881L213 756L206 761L343 906L471 771Z" />
<glyph unicode="&#xc3;" glyph-name="Atilde" horiz-adv-x="622" d="M42 0H30L329 700L340 705L592 0H507L429 220H137L42 0ZM298 592L141 230H426L298 592ZM238 786Q185 786 176 751L168 754Q173 784 194 808Q201 816 217 819L241 824Q258 827 303 817T384 798Q423
789 455 789T497 797T513 829L522 827Q511 773 481 757Q469 750 459 750T439 751Q416 751 388 759T357 768T353 769T313 778T238 786Z" />
<glyph unicode="&#xc4;" glyph-name="Adieresis" horiz-adv-x="622" d="M42 0H30L329 700L340 705L592 0H507L429 220H137L42 0ZM298 592L141 230H426L298 592ZM181 774T181 792T193 822T223 835T253 823T266 792T254 762T223 750T193 762ZM399 774T399 792T411
822T441 835T471 823T484 792T472 762T441 750T411 762Z" />
<glyph unicode="&#xc5;" glyph-name="Aring" horiz-adv-x="622" d="M42 0H30L329 700L340 705L592 0H507L429 220H137L42 0ZM298 592L141 230H426L298 592ZM288 751T255 773T221 837T255 903T341 928T425 906T458 842T424 776T339 751ZM315 920T298 897T281 838T297
781T338 759T380 782T398 841T381 898T340 920Z" />
<glyph unicode="&#xc6;" glyph-name="AE" horiz-adv-x="694" d="M637 700V690H412V390H614V380H412V10H659V0H329V220H137L42 0H30L329 700H637ZM329 230V664L141 230H329Z" />
<glyph unicode="&#xc7;" glyph-name="Ccedilla" horiz-adv-x="617" d="M399 -4Q506 -4 582 23L579 33L556 26Q533 20 488 13T408 6T347 9T280 31T209 84T156 185T133 335T146 472Q168 571 222 622Q293 691 399 691Q481 691 549 664L552 674L534 681Q515 688 477
694T399 701Q259 701 160 628Q109 589 80 518T50 356T70 203T122 102Q212 -4 399 -4ZM358 0H428V-126Q428 -131 424 -143T412 -166Q391 -190 342 -190H281V-182Q299 -182 309 -182T328 -179T342 -170Q358 -155 358 -119V0Z" />
<glyph unicode="&#xc8;" glyph-name="Egrave" horiz-adv-x="480" d="M428 700V690H113V390H405V380H113V10H450V0H30V700H428ZM152 893L224 891L270 750H257L152 893Z" />
<glyph unicode="&#xc9;" glyph-name="Eacute" horiz-adv-x="480" d="M428 700V690H113V390H405V380H113V10H450V0H30V700H428ZM288 891L360 893L255 750H242L288 891Z" />
<glyph unicode="&#xca;" glyph-name="Ecircumflex" horiz-adv-x="480" d="M428 700V690H113V390H405V380H113V10H450V0H30V700H428ZM391 770L370 750L249 880L133 755L126 760L263 905L391 770Z" />
<glyph unicode="&#xcb;" glyph-name="Edieresis" horiz-adv-x="480" d="M428 700V690H113V390H405V380H113V10H450V0H30V700H428ZM101 774T101 792T113 822T143 835T173 823T186 792T174 762T143 750T113 762ZM319 774T319 792T331 822T361 835T391 823T404 792T392
762T361 750T331 762Z" />
<glyph unicode="&#xcc;" glyph-name="Igrave" horiz-adv-x="318" d="M70 690V700H248V690H199V10H248V0H70V10H116V690H70ZM52 892L124 890L170 749H157L52 892Z" />
<glyph unicode="&#xcd;" glyph-name="Iacute" horiz-adv-x="318" d="M70 690V700H248V690H199V10H248V0H70V10H116V690H70ZM178 890L250 892L145 749H132L178 890Z" />
<glyph unicode="&#xce;" glyph-name="Icircumflex" horiz-adv-x="318" d="M70 690V700H248V690H199V10H248V0H70V10H116V690H70ZM291 769L270 749L149 879L33 754L26 759L163 904L291 769Z" />
<glyph unicode="&#xcf;" glyph-name="Idieresis" horiz-adv-x="318" d="M70 690V700H248V690H199V10H248V0H70V10H116V690H70ZM9 774T9 792T21 822T51 835T81 823T94 792T82 762T51 750T21 762ZM227 774T227 792T239 822T269 835T299 823T312 792T300 762T269
750T239 762Z" />
<glyph unicode="&#xd0;" glyph-name="Eth" horiz-adv-x="654" d="M70 368V376H102V699H182Q226 701 268 701T358 692T452 659T531 596T584 494T604 341T575 180T494 70Q395 -4 255 -4Q206 -4 152 0H102V368H70ZM185 8Q206 6 238 6T286 7T330 15T382 36T432 74T478
135Q521 217 521 349Q521 443 498 511T446 613T374 665T307 688T249 691T185 688V376H366V368H185V8Z" />
<glyph unicode="&#xd1;" glyph-name="Ntilde" horiz-adv-x="593" d="M78 0H65V700H99L515 53V700H528V0H455L78 580V0ZM218 787Q165 787 156 752L148 755Q153 785 174 809Q181 817 197 820L221 824Q238 828 283 818T364 799Q403 790 435 790T477 798T493 830L502
828Q491 774 461 758Q449 751 439 751T419 752Q396 752 368 760T337 769T333 770T293 779T218 787Z" />
<glyph unicode="&#xd2;" glyph-name="Ograve" horiz-adv-x="720" d="M50 333Q50 515 138 609T366 704T587 622T670 360T582 88T347 -4Q220 -4 139 69Q97 107 74 174T50 333ZM262 694T198 604T133 340T194 86T356 6T522 96T587 359T526 613T363 694ZM249 893L321
891L367 750H354L249 893Z" />
<glyph unicode="&#xd3;" glyph-name="Oacute" horiz-adv-x="720" d="M50 333Q50 515 138 609T366 704T587 622T670 360T582 88T347 -4Q220 -4 139 69Q97 107 74 174T50 333ZM262 694T198 604T133 340T194 86T356 6T522 96T587 359T526 613T363 694ZM415 891L487
893L382 750H369L415 891Z" />
<glyph unicode="&#xd4;" glyph-name="Ocircumflex" horiz-adv-x="720" d="M50 333Q50 515 138 609T366 704T587 622T670 360T582 88T347 -4Q220 -4 139 69Q97 107 74 174T50 333ZM262 694T198 604T133 340T194 86T356 6T522 96T587 359T526 613T363 694ZM508 770L487
750L366 880L250 755L243 760L380 905L508 770Z" />
<glyph unicode="&#xd5;" glyph-name="Otilde" horiz-adv-x="720" d="M50 333Q50 515 138 609T366 704T587 622T670 360T582 88T347 -4Q220 -4 139 69Q97 107 74 174T50 333ZM262 694T198 604T133 340T194 86T356 6T522 96T587 359T526 613T363 694ZM265 786Q212
786 203 751L195 754Q200 784 221 808Q228 816 244 819L268 824Q285 827 330 817T412 798Q450 789 482 789T524 797T540 829L549 827Q538 773 508 757Q496 750 486 750T466 751Q443 751 415 759T384 768T380 769T340 778T265 786Z" />
<glyph unicode="&#xd6;" glyph-name="Odieresis" horiz-adv-x="720" d="M50 333Q50 515 138 609T366 704T587 622T670 360T582 88T347 -4Q220 -4 139 69Q97 107 74 174T50 333ZM262 694T198 604T133 340T194 86T356 6T522 96T587 359T526 613T363 694ZM208 774T208
792T220 822T250 835T280 823T293 792T281 762T250 750T220 762ZM426 774T426 792T438 822T468 835T498 823T511 792T499 762T468 750T438 762Z" />
<glyph unicode="&#xd7;" glyph-name="multiply" horiz-adv-x="632" d="M496 354L350 208L497 62L435 0L288 146L142 0L136 6L282 152L138 296L200 358L344 214L490 360L496 354Z" />
<glyph unicode="&#xd8;" glyph-name="Oslash" horiz-adv-x="720" d="M97 0L90 5L597 700L604 695L97 0ZM50 333Q50 515 138 609T366 704T587 622T670 360T582 88T347 -4Q220 -4 139 69Q97 107 74 174T50 333ZM262 694T198 604T133 340T194 86T356 6T522 96T587
359T526 613T363 694Z" />
<glyph unicode="&#xd9;" glyph-name="Ugrave" horiz-adv-x="554" d="M511 700H524V300Q524 143 462 70T300 -4Q237 -4 193 7T110 50Q30 112 30 300V700H113V301Q113 119 168 58Q196 28 226 17T300 6Q396 6 453 76T511 301V700ZM202 893L274 891L320 750H307L202 893Z" />
<glyph unicode="&#xda;" glyph-name="Uacute" horiz-adv-x="554" d="M511 700H524V300Q524 143 462 70T300 -4Q237 -4 193 7T110 50Q30 112 30 300V700H113V301Q113 119 168 58Q196 28 226 17T300 6Q396 6 453 76T511 301V700ZM348 891L420 893L315 750H302L348 891Z" />
<glyph unicode="&#xdb;" glyph-name="Ucircumflex" horiz-adv-x="554" d="M511 700H524V300Q524 143 462 70T300 -4Q237 -4 193 7T110 50Q30 112 30 300V700H113V301Q113 119 168 58Q196 28 226 17T300 6Q396 6 453 76T511 301V700ZM441 771L420 751L299 881L183
756L176 761L313 906L441 771Z" />
<glyph unicode="&#xdc;" glyph-name="Udieresis" horiz-adv-x="554" d="M511 700H524V300Q524 143 462 70T300 -4Q237 -4 193 7T110 50Q30 112 30 300V700H113V301Q113 119 168 58Q196 28 226 17T300 6Q396 6 453 76T511 301V700ZM161 774T161 792T173 822T203
835T233 823T246 792T234 762T203 750T173 762ZM379 774T379 792T391 822T421 835T451 823T464 792T452 762T421 750T391 762Z" />
<glyph unicode="&#xdd;" glyph-name="Yacute" horiz-adv-x="533" d="M484 700Q503 681 503 651Q503 626 492 600L313 237V0H230V215L30 700H115L306 249L480 600Q491 625 491 652T476 694L484 700ZM328 891L400 893L295 750H282L328 891Z" />
<glyph unicode="&#xde;" glyph-name="Thorn" horiz-adv-x="572" d="M153 171V0H70V700H153V557L263 560Q269 560 274 560Q522 560 522 385Q522 304 480 243Q458 210 412 191T301 171H153ZM275 550Q217 550 153 543V181H301Q442 187 442 383Q442 463 400 506T275 550Z" />
<glyph unicode="&#xdf;" glyph-name="germandbls" horiz-adv-x="584" d="M296 368V622Q296 747 223 747Q198 747 180 718T161 621V0H81V492H30V500H81V618Q81 701 130 730Q172 754 231 754T332 721T375 621Q375 505 374 405Q374 346 420 315Q476 278 501 257Q553
215 553 138T503 29T380 -4Q351 -4 308 6T236 41L242 47Q262 28 302 16T382 4T453 35T484 137Q484 176 465 202T418 243T362 272Q296 306 296 368Z" />
<glyph unicode="&#xe0;" glyph-name="agrave" horiz-adv-x="519" d="M453 0Q385 0 360 26Q337 48 337 64V85Q288 -4 180 -4Q54 -4 37 110Q35 122 35 134T39 162T62 195Q100 231 229 239Q261 242 288 242T337 240V406Q335 407 337 415T334 437T319 464T287 486T227
496T141 483T68 456L64 463Q153 504 245 504Q348 504 381 467Q407 438 407 406V71Q407 42 418 27T442 10L453 8H484V0H453ZM196 4Q249 4 291 40T337 111V232Q310 234 283 234T228 231Q152 222 129 197T106 128Q106 120 107 110Q116 4 196 4ZM138 710L210 708L256
567H243L138 710Z" />
<glyph unicode="&#xe1;" glyph-name="aacute" horiz-adv-x="519" d="M453 0Q385 0 360 26Q337 48 337 64V85Q288 -4 180 -4Q54 -4 37 110Q35 122 35 134T39 162T62 195Q100 231 229 239Q261 242 288 242T337 240V406Q335 407 337 415T334 437T319 464T287 486T227
496T141 483T68 456L64 463Q153 504 245 504Q348 504 381 467Q407 438 407 406V71Q407 42 418 27T442 10L453 8H484V0H453ZM196 4Q249 4 291 40T337 111V232Q310 234 283 234T228 231Q152 222 129 197T106 128Q106 120 107 110Q116 4 196 4ZM284 708L356 710L251
567H238L284 708Z" />
<glyph unicode="&#xe2;" glyph-name="acircumflex" horiz-adv-x="519" d="M453 0Q385 0 360 26Q337 48 337 64V85Q288 -4 180 -4Q54 -4 37 110Q35 122 35 134T39 162T62 195Q100 231 229 239Q261 242 288 242T337 240V406Q335 407 337 415T334 437T319 464T287
486T227 496T141 483T68 456L64 463Q153 504 245 504Q348 504 381 467Q407 438 407 406V71Q407 42 418 27T442 10L453 8H484V0H453ZM196 4Q249 4 291 40T337 111V232Q310 234 283 234T228 231Q152 222 129 197T106 128Q106 120 107 110Q116 4 196 4ZM377 615L356
595L235 725L119 600L112 605L249 750L377 615Z" />
<glyph unicode="&#xe3;" glyph-name="atilde" horiz-adv-x="543" d="M453 0Q385 0 360 26Q337 48 337 64V85Q288 -4 180 -4Q54 -4 37 110Q35 122 35 134T39 162T62 195Q100 231 229 239Q261 242 288 242T337 240V406Q335 407 337 415T334 437T319 464T287 486T227
496T141 483T68 456L64 463Q153 504 245 504Q348 504 381 467Q407 438 407 406V71Q407 42 418 27T442 10L453 8H484V0H453ZM196 4Q249 4 291 40T337 111V232Q310 234 283 234T228 231Q152 222 129 197T106 128Q106 120 107 110Q116 4 196 4ZM72 582L64 585Q69 615
90 639Q97 647 113 650L137 654Q154 658 199 648T280 629Q319 620 351 620T393 628T409 660L418 658Q407 604 377 588Q365 581 355 581T335 582Q312 582 281 592Q194 617 138 617T72 582Z" />
<glyph unicode="&#xe4;" glyph-name="adieresis" horiz-adv-x="519" d="M453 0Q385 0 360 26Q337 48 337 64V85Q288 -4 180 -4Q54 -4 37 110Q35 122 35 134T39 162T62 195Q100 231 229 239Q261 242 288 242T337 240V406Q335 407 337 415T334 437T319 464T287 486T227
496T141 483T68 456L64 463Q153 504 245 504Q348 504 381 467Q407 438 407 406V71Q407 42 418 27T442 10L453 8H484V0H453ZM196 4Q249 4 291 40T337 111V232Q310 234 283 234T228 231Q152 222 129 197T106 128Q106 120 107 110Q116 4 196 4ZM77 624T77 642T89 672T119
685T149 673T162 642T150 612T119 600T89 612ZM295 624T295 642T307 672T337 685T367 673T380 642T368 612T337 600T307 612Z" />
<glyph unicode="&#xe5;" glyph-name="aring" horiz-adv-x="519" d="M188 573T155 595T121 659T155 725T241 750T325 728T358 664T324 598T239 573ZM215 742T198 719T181 660T197 603T238 581T280 604T298 663T281 720T240 742ZM453 0Q385 0 360 26Q337 48 337
64V85Q288 -4 180 -4Q54 -4 37 110Q35 122 35 134T39 162T62 195Q100 231 229 239Q261 242 288 242T337 240V406Q335 407 337 415T334 437T319 464T287 486T227 496T141 483T68 456L64 463Q153 504 245 504Q348 504 381 467Q407 438 407 406V71Q407 42 418 27T442
10L453 8H484V0H453ZM196 4Q249 4 291 40T337 111V232Q310 234 283 234T228 231Q152 222 129 197T106 128Q106 120 107 110Q116 4 196 4Z" />
<glyph unicode="&#xe6;" glyph-name="ae" horiz-adv-x="746" d="M355 244Q355 120 398 62T513 4Q613 4 691 34L694 27Q614 -4 513 -4Q391 -4 332 76Q313 43 276 20T190 -4Q49 -4 37 110Q36 122 36 134T39 160T60 193Q93 229 229 239Q267 241 287 241V244Q287 348
336 416Q334 439 322 459Q299 496 243 496Q145 496 68 456L64 463Q77 469 84 472T103 480T130 489T162 496Q198 504 243 504Q348 504 385 463Q443 504 523 504T659 455T715 310Q715 305 715 300H358Q355 273 355 244ZM646 404T610 450T517 496T416 446T359 308H647Q646
404 610 450ZM191 4Q238 4 274 28T328 83Q288 142 287 234Q162 234 126 194Q106 172 106 131Q106 121 107 110Q119 4 191 4Z" />
<glyph unicode="&#xe7;" glyph-name="ccedilla" horiz-adv-x="481" d="M274 496Q203 496 156 428T108 240T151 62T266 4Q355 4 424 34L427 27Q356 -4 261 -4T103 56T40 241T106 435T274 504Q331 504 379 478T451 399H387Q372 448 342 472T274 496ZM258 0H328V-126Q328
-131 324 -143T312 -166Q291 -190 242 -190H181V-182Q199 -182 209 -182T228 -179T242 -170Q258 -155 258 -119V0Z" />
<glyph unicode="&#xe8;" glyph-name="egrave" horiz-adv-x="499" d="M108 244Q108 120 151 62T266 4Q366 4 444 34L447 27Q367 -4 267 -4T103 56T40 241T106 435T274 504Q356 504 412 455T468 310Q468 305 468 300H111Q108 273 108 244ZM399 404T363 450T270 496T169
446T112 308H400Q399 404 363 450ZM152 710L224 708L270 567H257L152 710Z" />
<glyph unicode="&#xe9;" glyph-name="eacute" horiz-adv-x="499" d="M108 244Q108 120 151 62T266 4Q366 4 444 34L447 27Q367 -4 267 -4T103 56T40 241T106 435T274 504Q356 504 412 455T468 310Q468 305 468 300H111Q108 273 108 244ZM399 404T363 450T270 496T169
446T112 308H400Q399 404 363 450ZM308 708L380 710L275 567H262L308 708Z" />
<glyph unicode="&#xea;" glyph-name="ecircumflex" horiz-adv-x="499" d="M108 244Q108 120 151 62T266 4Q366 4 444 34L447 27Q367 -4 267 -4T103 56T40 241T106 435T274 504Q356 504 412 455T468 310Q468 305 468 300H111Q108 273 108 244ZM399 404T363 450T270
496T169 446T112 308H400Q399 404 363 450ZM401 615L380 595L259 725L143 600L136 605L273 750L401 615Z" />
<glyph unicode="&#xeb;" glyph-name="edieresis" horiz-adv-x="499" d="M108 244Q108 120 151 62T266 4Q366 4 444 34L447 27Q367 -4 267 -4T103 56T40 241T106 435T274 504Q356 504 412 455T468 310Q468 305 468 300H111Q108 273 108 244ZM399 404T363 450T270
496T169 446T112 308H400Q399 404 363 450ZM121 624T121 642T133 672T163 685T193 673T206 642T194 612T163 600T133 612ZM339 624T339 642T351 672T381 685T411 673T424 642T412 612T381 600T351 612Z" />
<glyph unicode="&#xec;" glyph-name="igrave" horiz-adv-x="215" d="M137 0Q96 0 75 18T52 54L51 71V500H121V71Q121 42 132 27T156 10L167 8H198V0H137ZM0 710L72 708L118 567H105L0 710Z" />
<glyph unicode="&#xed;" glyph-name="iacute" horiz-adv-x="215" d="M137 0Q96 0 75 18T52 54L51 71V500H121V71Q121 42 132 27T156 10L167 8H198V0H137ZM122 708L194 710L89 567H76L122 708Z" />
<glyph unicode="&#xee;" glyph-name="icircumflex" horiz-adv-x="265" d="M177 0Q136 0 115 18T92 54L91 71V500H161V71Q161 42 172 27T196 10L207 8H238V0H177ZM265 615L244 595L123 725L7 600L0 605L137 750L265 615Z" />
<glyph unicode="&#xef;" glyph-name="idieresis" horiz-adv-x="346" d="M223 0Q182 0 161 18T138 54L137 71V500H207V71Q207 42 218 27T242 10L253 8H284V0H223ZM20 624T20 642T32 672T62 685T92 673T105 642T93 612T62 600T32 612ZM238 624T238 642T250 672T280
685T310 673T323 642T311 612T280 600T250 612Z" />
<glyph unicode="&#xf0;" glyph-name="eth" horiz-adv-x="557" d="M518 256Q518 134 450 65T276 -4T104 56T38 241T106 435T276 504T425 425Q357 567 246 672L141 618L136 624L240 677Q204 710 160 742L163 751Q220 723 265 690L375 747L379 740L272 685Q392 597
455 477T518 256ZM211 496T164 428T116 240T159 62T274 4T392 72T440 248T402 426T287 496Z" />
<glyph unicode="&#xf1;" glyph-name="ntilde" horiz-adv-x="526" d="M455 0Q414 0 393 18T370 54L369 71V385Q369 464 328 486Q307 496 276 496Q212 496 161 446T110 355V0H40V500H110V386Q127 429 173 466T274 504T363 494T414 464Q439 433 439 384V71Q439 42
450 27T474 10L485 8H516V0H455ZM158 617Q105 617 96 582L88 585Q93 615 114 639Q121 647 137 650L161 654Q178 658 223 648T304 629Q343 620 375 620T417 628T433 660L442 658Q431 604 401 588Q389 581 379 581T359 582Q336 582 308 590T277 599T273 600T233 609T158
617Z" />
<glyph unicode="&#xf2;" glyph-name="ograve" horiz-adv-x="560" d="M182 710L254 708L300 567H287L182 710ZM172 -4T106 56T40 241T108 435T282 504T454 444T520 259T452 65T278 -4ZM208 496T158 429T108 241T154 62T276 4T402 71T452 259T406 438T284 496Z" />
<glyph unicode="&#xf3;" glyph-name="oacute" horiz-adv-x="560" d="M338 708L410 710L305 567H292L338 708ZM172 -4T106 56T40 241T108 435T282 504T454 444T520 259T452 65T278 -4ZM208 496T158 429T108 241T154 62T276 4T402 71T452 259T406 438T284 496Z" />
<glyph unicode="&#xf4;" glyph-name="ocircumflex" horiz-adv-x="560" d="M432 615L411 595L290 725L174 600L167 605L304 750L432 615ZM172 -4T106 56T40 241T108 435T282 504T454 444T520 259T452 65T278 -4ZM208 496T158 429T108 241T154 62T276 4T402 71T452
259T406 438T284 496Z" />
<glyph unicode="&#xf5;" glyph-name="otilde" horiz-adv-x="560" d="M178 617Q125 617 116 582L108 585Q113 615 134 639Q141 647 157 650L181 654Q198 658 243 648T324 629Q363 620 395 620T437 628T453 660L462 658Q451 604 421 588Q409 581 399 581T379 582Q356
582 328 590T297 599T293 600T253 609T178 617ZM172 -4T106 56T40 241T108 435T282 504T454 444T520 259T452 65T278 -4ZM208 496T158 429T108 241T154 62T276 4T402 71T452 259T406 438T284 496Z" />
<glyph unicode="&#xf6;" glyph-name="odieresis" horiz-adv-x="560" d="M131 624T131 642T143 672T173 685T203 673T216 642T204 612T173 600T143 612ZM349 624T349 642T361 672T391 685T421 673T434 642T422 612T391 600T361 612ZM172 -4T106 56T40 241T108 435T282
504T454 444T520 259T452 65T278 -4ZM208 496T158 429T108 241T154 62T276 4T402 71T452 259T406 438T284 496Z" />
<glyph unicode="&#xf7;" glyph-name="divide" horiz-adv-x="768" d="M146 265H600V257H146V265ZM334 390T334 408T346 438T376 451T406 439T419 408T407 378T376 366T346 378ZM334 87T334 105T346 135T376 148T406 136T419 105T407 75T376 63T346 75Z" />
<glyph unicode="&#xf8;" glyph-name="oslash" horiz-adv-x="560" d="M87 2L80 8L490 500L497 495L87 2ZM172 -4T106 56T40 241T108 435T282 504T454 444T520 259T452 65T278 -4ZM208 496T158 429T108 241T154 62T276 4T402 71T452 259T406 438T284 496Z" />
<glyph unicode="&#xf9;" glyph-name="ugrave" horiz-adv-x="526" d="M110 115Q110 36 152 14Q172 4 203 4Q266 4 315 52T369 141V500H439V71Q439 42 450 27T474 10L485 8H516V0H455Q414 0 393 18T370 54L369 71V114Q351 71 305 34T205 -4T116 6T66 36Q40 67 40
116V500H110V115ZM132 710L204 708L250 567H237L132 710Z" />
<glyph unicode="&#xfa;" glyph-name="uacute" horiz-adv-x="526" d="M110 115Q110 36 152 14Q172 4 203 4Q266 4 315 52T369 141V500H439V71Q439 42 450 27T474 10L485 8H516V0H455Q414 0 393 18T370 54L369 71V114Q351 71 305 34T205 -4T116 6T66 36Q40 67 40
116V500H110V115ZM288 708L360 710L255 567H242L288 708Z" />
<glyph unicode="&#xfb;" glyph-name="ucircumflex" horiz-adv-x="526" d="M110 115Q110 36 152 14Q172 4 203 4Q266 4 315 52T369 141V500H439V71Q439 42 450 27T474 10L485 8H516V0H455Q414 0 393 18T370 54L369 71V114Q351 71 305 34T205 -4T116 6T66 36Q40
67 40 116V500H110V115ZM381 615L360 595L239 725L123 600L116 605L253 750L381 615Z" />
<glyph unicode="&#xfc;" glyph-name="udieresis" horiz-adv-x="526" d="M110 115Q110 36 152 14Q172 4 203 4Q266 4 315 52T369 141V500H439V71Q439 42 450 27T474 10L485 8H516V0H455Q414 0 393 18T370 54L369 71V114Q351 71 305 34T205 -4T116 6T66 36Q40 67
40 116V500H110V115ZM91 624T91 642T103 672T133 685T163 673T176 642T164 612T133 600T103 612ZM309 624T309 642T321 672T351 685T381 673T394 642T382 612T351 600T321 612Z" />
<glyph unicode="&#xfd;" glyph-name="yacute" horiz-adv-x="486" d="M163 -179Q131 -250 84 -250Q63 -250 35 -243V-235Q58 -241 76 -241Q127 -241 154 -179L238 0H237L51 500H121L276 83L429 400Q441 421 441 450T425 494L431 500Q435 498 441 488T449 470T451
455Q451 428 439 400L247 0L163 -179ZM318 708L390 710L285 567H272L318 708Z" />
<glyph unicode="&#xfe;" glyph-name="thorn" horiz-adv-x="520" d="M40 750H110V376Q127 422 173 463T277 504Q480 504 480 266Q480 -4 218 -4Q171 -4 110 18V-250H40V750ZM276 496Q214 496 164 443T110 346V27Q171 4 217 4Q410 4 410 267Q410 496 276 496Z" />
<glyph unicode="&#xff;" glyph-name="ydieresis" horiz-adv-x="486" d="M163 -179Q131 -250 84 -250Q63 -250 35 -243V-235Q58 -241 76 -241Q127 -241 154 -179L238 0H237L51 500H121L276 83L429 400Q441 421 441 450T425 494L431 500Q435 498 441 488T449 470T451
455Q451 428 439 400L247 0L163 -179ZM111 624T111 642T123 672T153 685T183 673T196 642T184 612T153 600T123 612ZM329 624T329 642T341 672T371 685T401 673T414 642T402 612T371 600T341 612Z" />
<glyph unicode="&#x2013;" glyph-name="endash" horiz-adv-x="601" d="M80 265H534V257H80V265Z" />
<glyph unicode="&#x2014;" glyph-name="emdash" horiz-adv-x="701" d="M80 265H634V257H80V265Z" />
<glyph unicode="&#x2018;" glyph-name="quoteleft" horiz-adv-x="260" d="M127 526Q82 700 82 713T93 738T122 750T151 738T163 710T151 681T122 669H119L140 526H127Z" />
<glyph unicode="&#x2019;" glyph-name="quoteright" horiz-adv-x="260" d="M140 750T151 738T163 713T118 526H105L126 669H123Q107 669 95 681T82 709T94 738T123 750Z" />
<glyph unicode="&#x201a;" glyph-name="quotesinglbase" horiz-adv-x="260" d="M151 100T162 88T174 63T129 -124H116L137 19H134Q118 19 106 31T93 59T105 88T134 100Z" />
<glyph unicode="&#x201c;" glyph-name="quotedblleft" horiz-adv-x="353" d="M127 526Q82 700 82 713T93 738T122 750T151 738T163 710T151 681T122 669H119L140 526H127ZM237 526Q192 700 192 713T203 738T232 750T261 738T273 710T261 681T232 669H229L250 526H237Z" />
<glyph unicode="&#x201d;" glyph-name="quotedblright" horiz-adv-x="353" d="M250 750T261 738T273 713T228 526H215L236 669H233Q217 669 205 681T192 709T204 738T233 750ZM140 750T151 738T163 713T118 526H105L126 669H123Q107 669 95 681T82 709T94 738T123 750Z" />
<glyph unicode="&#x201e;" glyph-name="quotedblbase" horiz-adv-x="400" d="M250 100T261 88T273 63T228 -124H215L236 19H233Q217 19 205 31T192 59T204 88T233 100ZM140 100T151 88T163 63T118 -124H105L126 19H123Q107 19 95 31T82 59T94 88T123 100Z" />
<glyph unicode="&#x2022;" glyph-name="bullet" horiz-adv-x="474" d="M188 290T144 334T100 427T144 519T232 564T320 519T365 427T321 335T232 290Z" />
<glyph unicode="&#x2039;" glyph-name="guilsinglleft" horiz-adv-x="436" d="M344 126V118L100 259L344 400V392L165 259L344 126Z" />
<glyph unicode="&#x203a;" glyph-name="guilsinglright" horiz-adv-x="436" d="M100 118V126L279 259L100 392V400L344 259L100 118Z" />
</font>
</defs>
</svg>
