<?xml version="1.0" encoding="utf-8"?>
<!-- Generator: Adobe Illustrator 22.1.0, SVG Export Plug-In . SVG Version: 6.00 Build 0)  -->
<svg version="1.1" id="Livello_1" xmlns="http://www.w3.org/2000/svg" xmlns:xlink="http://www.w3.org/1999/xlink" x="0px" y="0px"
	 viewBox="0 0 200 200" style="enable-background:new 0 0 200 200;" xml:space="preserve">
<style type="text/css">
	.st0{fill:#FFFFFF;}
</style>
<title>instagram</title>
<path class="st0" d="M127.3,25H66.7C42,25,22,45,22,69.7v60.6C22,155,42,175,66.7,175h60.6c24.7,0,44.6-20,44.7-44.6V69.7
	C172,45,152,25,127.3,25z M156.9,130.3c0,16.3-13.2,29.6-29.6,29.6l0,0H66.7c-16.3,0-29.6-13.2-29.6-29.6l0,0V69.7
	c0-16.3,13.3-29.6,29.6-29.6h60.6c16.3,0,29.6,13.3,29.6,29.6l0,0V130.3L156.9,130.3z"/>
<path class="st0" d="M97,61.2c-21.4,0-38.8,17.4-38.8,38.8s17.4,38.8,38.8,38.8s38.8-17.4,38.8-38.8l0,0
	C135.8,78.6,118.4,61.3,97,61.2z M97,123.7c-13.1,0-23.7-10.6-23.7-23.7S83.9,76.3,97,76.3s23.7,10.6,23.7,23.7
	S110.1,123.7,97,123.7L97,123.7z"/>
<circle class="st0" cx="135.9" cy="61.5" r="9.3"/>
</svg>
