<?xml version="1.0" encoding="utf-8"?>
<!-- Generator: Adobe Illustrator 22.1.0, SVG Export Plug-In . SVG Version: 6.00 Build 0)  -->
<svg version="1.1" id="Livello_1" xmlns="http://www.w3.org/2000/svg" xmlns:xlink="http://www.w3.org/1999/xlink" x="0px" y="0px"
	 viewBox="0 0 512 512" style="enable-background:new 0 0 512 512;" xml:space="preserve">
<style type="text/css">
	.st0{fill:#FFFFFF;}
</style>
<title>search</title>
<path class="st0" d="M501.6,480.5L380.1,359c33.8-38.7,52.4-88.4,52.3-139.8C432.5,101.5,336.8,6,219.2,6S6,101.7,6,219.2
	s95.7,213.2,213.2,213.2c51.4,0.1,101.1-18.5,139.8-52.3l121.5,121.5c2.8,2.8,6.6,4.4,10.5,4.4c4,0,7.8-1.6,10.5-4.4
	C507.4,495.7,507.4,486.4,501.6,480.5z M35.8,219.2c0-101.1,82.3-183.3,183.3-183.3s183.3,82.3,183.3,183.3s-82.2,183.4-183.3,183.4
	S35.8,320.3,35.8,219.2z"/>
</svg>
