<svg id="Layer_1" data-name="Layer 1" xmlns="http://www.w3.org/2000/svg" viewBox="0 0 652.29 105.6"><defs><style>.cls-1{fill:#fff;}</style></defs><path class="cls-1" d="M223.52,522.39a26.87,26.87,0,0,1-26.84,26.82,26.54,26.54,0,0,1-9.63-1.79,26.86,26.86,0,0,1-17.2-25l.09-.07c7.08-5.39,12.7-6.27,16.58-6.05,8.29.45,11.83,6.12,21.64,7.62A32.58,32.58,0,0,0,223.52,522.39Z" transform="translate(-169.85 -496.43)"/><path class="cls-1" d="M223.52,522.39a26.87,26.87,0,0,1-26.84,26.82,26.54,26.54,0,0,1-9.63-1.79,26.86,26.86,0,0,1-17.2-25l.09-.07c7.08-5.39,12.7-6.27,16.58-6.05,8.29.45,11.83,6.12,21.64,7.62A32.58,32.58,0,0,0,223.52,522.39Z" transform="translate(-169.85 -496.43)"/><path class="cls-1" d="M813.06,534.42c-6.17-6.27-15.29-9.44-27.1-9.44-23.79,0-38,14.17-38,37.91,0,24.81,14.34,39,39.33,39h25.19V589.54H787.15c-14.3,0-23-7.42-23.88-20.39H822v-.32c0-.05.15-4.55.15-6.64C822.35,550.11,819.3,540.76,813.06,534.42ZM762.81,556.9c.87-12.15,9.59-19.68,22.84-19.68,7.53,0,13.2,1.9,16.87,5.66,3.26,3.32,4.87,8,4.79,14Z" transform="translate(-169.85 -496.43)"/><path class="cls-1" d="M323.27,525.22c-22.88,0-39.3,16.11-39.3,38.41S299.18,602,320,602c11.3,0,21.24-4.52,27.26-11.6v10.24h15.37v-37C362.59,541.33,346.16,525.22,323.27,525.22Zm.16,63.41c-13.71,0-23.65-10.39-23.65-25s9.94-25,23.65-25,23.79,10.55,23.79,25S337.28,588.63,323.43,588.63Z" transform="translate(-169.85 -496.43)"/><rect class="cls-1" x="208.99" y="30.14" width="15.36" height="74.09"/><path class="cls-1" d="M386.52,497.51c-5.87,0-9.79,3.61-9.79,9,0,5.27,3.92,9,9.79,9s9.79-3.77,9.79-9C396.31,501.12,392.24,497.51,386.52,497.51Z" transform="translate(-169.85 -496.43)"/><path class="cls-1" d="M442.09,556.54c-8.58-1.66-15.36-2.86-15.36-10.54,0-5.57,5.72-9.49,13.55-9.49,8.59,0,14.46,4.52,14.76,11.15H469.5c0-13.26-12.05-22.44-28.91-22.44-17.32,0-29.07,8.88-29.07,22.28,0,17.47,17.62,20.79,28.76,22.44,8.44,1.51,15.82,2.71,15.82,10.39,0,6.18-6.18,10.25-14.76,10.25-9.19,0-15.82-4.67-16.12-11.75H410.16C410.31,592.53,423,602,440.89,602s30.42-9.19,30.42-22.59C471.31,561.66,452.63,558.5,442.09,556.54Z" transform="translate(-169.85 -496.43)"/><path class="cls-1" d="M521.76,525.22c-22.89,0-39.32,16.11-39.32,38.41s15.22,38.4,36,38.4c11.29,0,21.24-4.52,27.26-11.6v10.24h15.36v-37C561.06,541.33,544.64,525.22,521.76,525.22Zm.15,63.41c-13.71,0-23.65-10.39-23.65-25s9.94-25,23.65-25,23.79,10.55,23.79,25S535.76,588.63,521.91,588.63Z" transform="translate(-169.85 -496.43)"/><path class="cls-1" d="M610.15,525.22c-20,0-33.73,12.95-33.73,32.07v43.38h15.51V557.29c0-11.59,7.23-19.27,18.37-19.27s18.38,7.68,18.38,19.27v43.38h15.51V557.29C644.19,538.17,630.33,525.22,610.15,525.22Z" transform="translate(-169.85 -496.43)"/><path class="cls-1" d="M697.5,538.62a23.17,23.17,0,0,1,22.89,18.67h15.66c-2.26-18.52-18.37-32.07-38.55-32.07-22.9,0-39.61,16.11-39.61,38.4S674.6,602,697.5,602c20.18,0,36.29-13.4,38.55-32.08H720.54a23.18,23.18,0,0,1-23,18.68c-13.86,0-23.8-10.39-23.8-25S683.64,538.62,697.5,538.62Z" transform="translate(-169.85 -496.43)"/><rect class="cls-1" x="84.15" y="0.02" width="15.36" height="104.22"/><path class="cls-1" d="M239.22,526.63c-1.54,17.51-15.4,31.37-32.78,34.21-1.37.2-2.78.39-4.24.55v32.69h9.53v6.43h-34.1v-6.43h9.72V554a32.54,32.54,0,0,0,9.33,1.35,33,33,0,0,0,32.94-32.93V513.9l-8.06,2.71a27.64,27.64,0,0,1-8.87,1.53,23.84,23.84,0,0,1-3.6-.27c-3.81-.58-6.36-1.94-9.32-3.5-3.46-1.82-7.38-3.89-12.91-4.19-.45,0-.91,0-1.4,0a29.43,29.43,0,0,0-15.52,4.8V496.51h2.65v-.08H225a9.92,9.92,0,0,1,8.55,4.76c2.47,4.14,5.33,11.21,5.75,22.13A23.41,23.41,0,0,1,239.22,526.63Z" transform="translate(-169.85 -496.43)"/></svg>